<?xml version="1.0" encoding="UTF-8" ?>
<!DOCTYPE svg PUBLIC "-//W3C//DTD SVG 1.1//EN" "http://www.w3.org/Graphics/SVG/1.1/DTD/svg11.dtd">
<svg width="523pt" height="584pt" viewBox="0 0 323 384" version="1.1" xmlns="http://www.w3.org/2000/svg">
  <path fill="#ffffff" fill-opacity="0.1" d=" M 0.00 0.00 L 323.00 0.00 L 323.00 206.52 C 320.42 188.55 314.96 171.09 307.51 154.56 C 299.08 134.54 284.43 117.94 269.09 102.92 C 245.08 81.92 214.81 67.67 183.05 63.80 C 136.41 56.78 87.10 72.54 52.84 104.85 C 35.29 120.31 21.20 139.83 12.49 161.56 C 6.05 176.52 3.60 192.77 0.00 208.55 L 0.00 0.00 Z" />
  <path fill="#ff0014" fill-opacity="0.1" d=" M 170.99 7.98 C 195.04 -1.90 224.69 -1.00 245.95 15.06 C 263.52 26.86 275.40 46.17 279.03 66.91 C 280.02 74.61 279.94 82.40 280.08 90.15 C 255.11 71.18 227.36 53.38 195.56 49.42 C 174.22 44.80 152.00 44.71 130.59 48.94 C 138.68 31.10 153.38 16.46 170.99 7.98 Z" />
  <path fill="#ff0014" fill-opacity="0.1" d=" M 52.84 104.85 C 87.10 72.54 136.41 56.78 183.05 63.80 C 214.81 67.67 245.08 81.92 269.09 102.92 C 284.43 117.94 299.08 134.54 307.51 154.56 C 314.96 171.09 320.42 188.55 323.00 206.52 L 323.00 239.47 C 316.40 291.91 284.53 341.76 236.93 365.94 C 221.07 375.15 203.33 380.31 185.48 384.00 L 142.61 384.00 C 154.40 312.98 165.46 241.82 176.79 170.72 C 172.39 179.64 169.08 189.04 165.20 198.18 C 141.64 255.51 118.30 312.92 94.64 370.20 C 77.61 363.22 63.13 351.57 49.30 339.69 C 34.99 325.21 22.75 308.41 14.17 289.92 C 7.23 272.49 2.05 254.23 0.00 235.54 L 0.00 208.55 C 3.60 192.77 6.05 176.52 12.49 161.56 C 21.20 139.83 35.29 120.31 52.84 104.85 Z" />
  <path fill="#ffffff" fill-opacity="0.8" d=" M 133.41 101.62 C 141.88 101.54 151.96 103.52 156.93 111.09 C 165.77 121.33 164.47 137.28 156.75 147.77 C 152.38 153.05 145.19 154.40 138.94 156.13 C 132.64 157.70 126.40 154.31 120.68 152.28 C 109.07 144.73 103.58 126.85 112.04 115.02 C 115.96 106.92 124.77 102.51 133.41 101.62 Z" />
  <path fill="#ffffff" fill-opacity="0.8" d=" M 232.41 129.61 C 244.12 128.75 256.05 135.53 260.38 146.66 C 265.23 159.54 259.71 177.14 245.97 181.92 C 229.71 190.47 207.29 177.18 207.00 158.96 C 205.14 144.15 217.82 130.45 232.41 129.61 Z" />
  <path fill="#ffffff" fill-opacity="0.8" d=" M 55.45 158.53 C 67.69 155.80 82.73 161.52 87.10 173.98 C 91.94 183.71 88.48 195.23 82.71 203.74 C 74.69 211.87 61.38 216.05 50.92 210.14 C 37.48 205.57 31.91 189.24 35.38 176.34 C 39.59 168.48 45.77 159.60 55.45 158.53 Z" />
  <path fill="#ffffff" fill-opacity="0.1" d=" M 165.20 198.18 C 169.08 189.04 172.39 179.64 176.79 170.72 C 165.46 241.82 154.40 312.98 142.61 384.00 L 0.00 384.00 L 0.00 235.54 C 2.05 254.23 7.23 272.49 14.17 289.92 C 22.75 308.41 34.99 325.21 49.30 339.69 C 63.13 351.57 77.61 363.22 94.64 370.20 C 118.30 312.92 141.64 255.51 165.20 198.18 Z" />
  <path fill="#ffffff" fill-opacity="0.8" d=" M 264.43 214.44 C 270.76 213.59 277.48 213.89 283.33 216.66 C 292.55 222.54 299.48 233.57 297.68 244.82 C 296.35 259.64 280.79 271.11 266.18 268.68 C 255.67 267.78 246.87 258.84 243.71 249.19 C 239.15 234.54 249.33 217.09 264.43 214.44 Z" />
  <path fill="#ffffff" fill-opacity="0.8" d=" M 236.93 365.94 C 284.53 341.76 316.40 291.91 323.00 239.47 L 323.00 384.00 L 185.48 384.00 C 203.33 380.31 221.07 375.15 236.93 365.94 Z" />
  <path fill="#ffffff" fill-opacity="0.8" d=" M 64.45 255.48 C 78.01 252.49 93.39 260.66 96.40 274.64 C 102.33 289.41 90.65 305.62 76.33 309.31 C 63.48 312.42 49.10 305.12 44.14 292.89 C 42.41 285.74 42.22 277.90 44.98 270.97 C 48.81 263.41 55.42 255.94 64.45 255.48 Z" />
  <path fill="#ffffff" fill-opacity="0.8" d=" M 202.44 288.53 C 217.12 284.44 232.44 295.02 235.51 309.44 C 237.20 319.51 234.56 331.57 225.71 337.68 C 214.84 346.05 197.93 344.22 188.33 334.68 C 182.77 328.23 180.43 319.52 181.18 311.14 C 183.77 300.79 191.86 291.10 202.44 288.53 Z" />
</svg>
